<svg id="Layer_1" data-name="Layer 1" xmlns="http://www.w3.org/2000/svg" xmlns:xlink="http://www.w3.org/1999/xlink" viewBox="0 0 992.13 708.66"><defs><clipPath id="clip-path"><rect width="992.13" height="708.66" fill="none"/></clipPath></defs><g clip-path="url(#clip-path)"><path d="M39.71,46.91c0-4.37,3.36-6.68,6.58-7.2V42A4.7,4.7,0,0,0,43,46.33h3.17v6.24H39.71Zm9.5,0c0-4.37,3.36-6.68,6.58-7.2V42a4.69,4.69,0,0,0-3.26,4.37h3.16v6.24H49.21Z" fill="#1d1d1b"/><path d="M60,39.85h7V74.17H60Z" fill="#1d1d1b"/><path d="M71.2,50.46a4.71,4.71,0,0,0,3.26-4.37H71.29V39.85h6.48v5.66c0,4.37-3.36,6.68-6.57,7.2Z" fill="#1d1d1b"/><path d="M79.64,49.55h6.63L90.2,62.32c.72,2.35,1.11,3.93,1.11,3.93h.09s.34-1.58,1.06-3.93l4-12.77H103L94.43,74.17H88.19Z" fill="#1d1d1b"/><path d="M103.31,61.84c0-7.3,4.94-13,12.14-13,7.92,0,12.15,6.05,12.15,14.84H109.74c.48,3.79,2.59,6.14,6.29,6.14a4.6,4.6,0,0,0,4.75-3h6.43c-.91,4.37-4.8,8.06-11.13,8.06C107.92,74.89,103.31,69.18,103.31,61.84Zm6.53-2.64h10.94c-.19-3.12-2.26-5.29-5.23-5.29C112.09,53.91,110.41,56,109.84,59.2Z" fill="#1d1d1b"/><path d="M137.48,61.88c0-7.34,4.8-13,12.29-13,6.39,0,10.32,3.7,11.19,9h-6.39a4.51,4.51,0,0,0-4.51-3.79c-3.94,0-5.95,3-5.95,7.77S146,69.66,150,69.66a4.6,4.6,0,0,0,4.95-4.18h6.29c-.44,5.24-4.52,9.41-11.09,9.41C142.33,74.89,137.48,69.23,137.48,61.88Z" fill="#1d1d1b"/><path d="M162.83,61.88c0-7.34,5.23-13,12.86-13s12.87,5.67,12.87,13-5.24,13-12.87,13S162.83,69.23,162.83,61.88Zm19.1,0c0-4.8-2.25-8.06-6.24-8.06s-6.24,3.26-6.24,8.06,2.21,8,6.24,8S181.93,66.68,181.93,61.88Z" fill="#1d1d1b"/><path d="M191.58,49.55h6.29v3.31H198a8,8,0,0,1,7.15-4A7.36,7.36,0,0,1,212,53.19h.1a8.6,8.6,0,0,1,7.39-4.32c5.18,0,8.11,3.36,8.11,8.74V74.17h-6.53V58.72c0-2.79-1.39-4.23-3.79-4.23-2.74,0-4.42,2.11-4.42,5.38v14.3h-6.52V58.72c0-2.79-1.4-4.23-3.8-4.23-2.64,0-4.41,2.11-4.41,5.38v14.3h-6.53Z" fill="#1d1d1b"/><path d="M230.41,61.84c0-7.3,4.94-13,12.15-13,7.92,0,12.14,6.05,12.14,14.84H236.84c.48,3.79,2.59,6.14,6.29,6.14a4.59,4.59,0,0,0,4.75-3h6.44c-.92,4.37-4.8,8.06-11.14,8.06C235,74.89,230.41,69.18,230.41,61.84Zm6.53-2.64h10.94c-.19-3.12-2.25-5.29-5.23-5.29C239.2,53.91,237.51,56,236.94,59.2Z" fill="#1d1d1b"/><path d="M264.35,49.55h3.4V41.87h6.39v7.68h4.22v4.32h-4.22V66.92a2.16,2.16,0,0,0,2.45,2.45c.81,0,1.92-.05,1.92-.05v4.8s-1.49.1-4.08.1c-3.17,0-6.68-1.25-6.68-5.9V53.87h-3.4Z" fill="#1d1d1b"/><path d="M280.33,61.88c0-7.34,5.23-13,12.86-13s12.87,5.67,12.87,13-5.23,13-12.87,13S280.33,69.23,280.33,61.88Zm19.1,0c0-4.8-2.25-8.06-6.24-8.06S287,57.08,287,61.88s2.21,8,6.24,8S299.43,66.68,299.43,61.88Z" fill="#1d1d1b"/><path d="M315.7,49.55h3.41V41.87h6.39v7.68h4.22v4.32H325.5V66.92A2.16,2.16,0,0,0,328,69.37c.81,0,1.92-.05,1.92-.05v4.8s-1.49.1-4.08.1c-3.17,0-6.68-1.25-6.68-5.9V53.87H315.7Z" fill="#1d1d1b"/><path d="M339.61,52.76h.14a7.87,7.87,0,0,1,7.16-3.89c5.08,0,8.49,3.84,8.49,9.22V74.17h-6.53V59.05c0-2.64-1.53-4.51-4.27-4.51s-5,2.3-5,5.66v14h-6.53V39.85h6.53Z" fill="#1d1d1b"/><path d="M359.43,39.85H366v5.86h-6.53Zm0,9.7H366V74.17h-6.53Z" fill="#1d1d1b"/><path d="M376.57,52.91h.14a8,8,0,0,1,7.3-4c5.09,0,8.5,3.84,8.5,9.22V74.17H386V59.05c0-2.64-1.54-4.51-4.28-4.51s-5,2.3-5,5.66v14h-6.53V49.55h6.39Z" fill="#1d1d1b"/><path d="M405.85,62.94,403,65.87v8.3h-6.48V39.85H403v19l8.73-9.31h7.83l-9.08,9.36,10.18,15.26h-7.92Z" fill="#1d1d1b"/><path d="M38.85,106.52h3.4V98.84h6.39v7.68h4.22v4.32H48.64V123.9a2.16,2.16,0,0,0,2.45,2.45c.81,0,1.92,0,1.92,0v4.8s-1.49.1-4.08.1c-3.17,0-6.68-1.25-6.68-5.91V110.84h-3.4Z" fill="#1d1d1b"/><path d="M62.75,109.74h.14a7.87,7.87,0,0,1,7.16-3.89c5.08,0,8.49,3.84,8.49,9.22v16.08H72V116c0-2.64-1.53-4.51-4.27-4.51s-5,2.3-5,5.66v14H56.22V96.83h6.53Z" fill="#1d1d1b"/><path d="M97.31,128.41h-.1c-1.24,1.87-3,3.31-7.24,3.31-5,0-8.6-2.64-8.6-7.53,0-5.43,4.42-7.15,9.89-7.92,4.08-.58,5.95-.91,5.95-2.79s-1.39-2.92-4.12-2.92c-3.08,0-4.57,1.1-4.76,3.45H82.52c.2-4.32,3.41-8.11,10.61-8.11,7.4,0,10.37,3.31,10.37,9.07V127.5c0,1.87.29,3,.87,3.41v.24H98.08A6.52,6.52,0,0,1,97.31,128.41Zm0-6v-3.7a17.72,17.72,0,0,1-4.56,1.44c-3.41.77-5.09,1.54-5.09,3.84s1.54,3.12,3.84,3.12C95.29,127.16,97.36,124.86,97.36,122.46Z" fill="#1d1d1b"/><path d="M105.76,106.52h3.4V98.84h6.39v7.68h4.22v4.32h-4.22V123.9a2.16,2.16,0,0,0,2.45,2.45c.81,0,1.92,0,1.92,0v4.8s-1.49.1-4.08.1c-3.17,0-6.68-1.25-6.68-5.91V110.84h-3.4Z" fill="#1d1d1b"/><path d="M131.72,96.83h7v13.44h13.49V96.83h7v34.32h-7V116H138.68v15.12h-7Z" fill="#1d1d1b"/><path d="M162.68,118.81c0-7.29,4.95-13,12.15-13,7.92,0,12.14,6.05,12.14,14.83H169.12c.48,3.8,2.59,6.15,6.28,6.15a4.6,4.6,0,0,0,4.76-3h6.43c-.91,4.37-4.8,8.07-11.14,8.07C167.29,131.87,162.68,126.16,162.68,118.81Zm6.53-2.64h10.95c-.2-3.12-2.26-5.28-5.24-5.28C171.47,110.89,169.79,113,169.21,116.17Z" fill="#1d1d1b"/><path d="M190.09,96.83h6.53v34.32h-6.53Z" fill="#1d1d1b"/><path d="M198.92,106.52h6.63l3.93,12.77c.72,2.35,1.11,3.94,1.11,3.94h.09s.34-1.59,1.06-3.94l4-12.77h6.53l-8.59,24.63h-6.24Z" fill="#1d1d1b"/><path d="M222.59,118.81c0-7.29,4.94-13,12.14-13,7.92,0,12.15,6.05,12.15,14.83H229c.48,3.8,2.59,6.15,6.29,6.15a4.59,4.59,0,0,0,4.75-3h6.43c-.91,4.37-4.8,8.07-11.13,8.07C227.19,131.87,222.59,126.16,222.59,118.81Zm6.52-2.64h10.95c-.19-3.12-2.26-5.28-5.23-5.28C231.37,110.89,229.69,113,229.11,116.17Z" fill="#1d1d1b"/><path d="M248,106.52h3.4V98.84h6.39v7.68H262v4.32h-4.22V123.9a2.16,2.16,0,0,0,2.45,2.45c.81,0,1.92,0,1.92,0v4.8s-1.49.1-4.08.1c-3.17,0-6.68-1.25-6.68-5.91V110.84H248Z" fill="#1d1d1b"/><path d="M265.4,96.83h6.53v5.85H265.4Zm0,9.69h6.53v24.63H265.4Z" fill="#1d1d1b"/><path d="M275,118.86c0-7.34,4.8-13,12.29-13,6.39,0,10.32,3.7,11.19,9H292a4.52,4.52,0,0,0-4.51-3.8c-3.94,0-5.95,3-5.95,7.78s1.87,7.78,5.85,7.78a4.61,4.61,0,0,0,4.95-4.18h6.29c-.43,5.23-4.52,9.41-11.09,9.41C279.8,131.87,275,126.2,275,118.86Z" fill="#1d1d1b"/><path d="M316.71,128.41h-.09c-1.25,1.87-3,3.31-7.25,3.31-5,0-8.59-2.64-8.59-7.53,0-5.43,4.41-7.15,9.89-7.92,4.08-.58,5.95-.91,5.95-2.79s-1.39-2.92-4.13-2.92c-3.07,0-4.56,1.1-4.75,3.45h-5.81c.19-4.32,3.41-8.11,10.61-8.11,7.39,0,10.37,3.31,10.37,9.07V127.5c0,1.87.28,3,.86,3.41v.24h-6.29A6.83,6.83,0,0,1,316.71,128.41Zm.05-6v-3.7a17.72,17.72,0,0,1-4.56,1.44c-3.41.77-5.09,1.54-5.09,3.84s1.54,3.12,3.84,3.12C314.7,127.16,316.76,124.86,316.76,122.46Z" fill="#1d1d1b"/><path d="M333.18,106.52h6.48l3,11.43c.53,2,1.11,4.61,1.11,4.61h.09s.53-2.64,1.06-4.66L348,106.52h5.57l3.22,11.38c.52,2.06,1.15,4.66,1.15,4.66H358s.58-2.6,1.11-4.61l3.12-11.43h6.34l-7.35,24.63h-5.95L352,119.05c-.52-2-1.1-4.27-1.1-4.27h-.1l-1.15,4.27-3.36,12.1h-5.9Z" fill="#1d1d1b"/><path d="M384.87,128.41h-.09c-1.25,1.87-3,3.31-7.25,3.31-5,0-8.59-2.64-8.59-7.53,0-5.43,4.41-7.15,9.88-7.92,4.08-.58,6-.91,6-2.79s-1.39-2.92-4.13-2.92c-3.07,0-4.56,1.1-4.75,3.45h-5.81c.19-4.32,3.41-8.11,10.61-8.11,7.39,0,10.37,3.31,10.37,9.07V127.5c0,1.87.28,3,.86,3.41v.24h-6.29A6.83,6.83,0,0,1,384.87,128.41Zm.05-6v-3.7a17.72,17.72,0,0,1-4.56,1.44c-3.41.77-5.09,1.54-5.09,3.84s1.54,3.12,3.84,3.12C382.86,127.16,384.92,124.86,384.92,122.46Z" fill="#1d1d1b"/><path d="M393.66,123.18h6c.44,2.83,2.45,4.08,5.38,4.08s4.51-1.1,4.51-2.83c0-2.35-3.12-2.59-6.48-3.27-4.41-.86-8.73-2.06-8.73-7.44s4.41-7.87,10-7.87c6.48,0,10.08,3.22,10.56,8.16h-5.91c-.28-2.64-2-3.6-4.75-3.6-2.54,0-4.22,1-4.22,2.74,0,2.11,3.26,2.3,6.77,3,4.12.87,8.69,2,8.69,7.78,0,4.94-4.23,7.92-10.37,7.92C398,131.87,394,128.41,393.66,123.18Z" fill="#1d1d1b"/><path d="M46.67,166.86h.14a8,8,0,0,1,7.3-4c5.09,0,8.5,3.84,8.5,9.21v16.08H56.08V173c0-2.64-1.54-4.51-4.27-4.51-2.88,0-5,2.31-5,5.67v14H40.29V163.5h6.38Z" fill="#1d1d1b"/><path d="M65.44,175.79c0-7.3,4.94-13,12.14-13,7.92,0,12.15,6,12.15,14.83H71.87c.48,3.79,2.59,6.14,6.29,6.14a4.6,4.6,0,0,0,4.75-3h6.43c-.91,4.37-4.8,8.07-11.13,8.07C70.05,188.85,65.44,183.13,65.44,175.79ZM72,173.15H82.91c-.19-3.12-2.26-5.28-5.23-5.28C74.22,167.87,72.54,169.93,72,173.15Z" fill="#1d1d1b"/><path d="M90.3,163.5h6.63l3.93,12.77c.72,2.35,1.11,3.93,1.11,3.93h.09s.34-1.58,1.06-3.93l4-12.77h6.53l-8.59,24.62H98.85Z" fill="#1d1d1b"/><path d="M114,175.79c0-7.3,4.95-13,12.15-13,7.92,0,12.14,6,12.14,14.83H120.45c.48,3.79,2.59,6.14,6.28,6.14a4.6,4.6,0,0,0,4.76-3h6.43c-.91,4.37-4.8,8.07-11.14,8.07C118.62,188.85,114,183.13,114,175.79Zm6.53-2.64h11c-.2-3.12-2.26-5.28-5.24-5.28C122.8,167.87,121.12,169.93,120.54,173.15Z" fill="#1d1d1b"/><path d="M147.61,167.43h.15c1.49-2.78,3.17-4.22,6.05-4.22a4.31,4.31,0,0,1,1.53.19v5.72h-.14c-4.27-.44-7.35,1.82-7.35,7v12h-6.53V163.5h6.29Z" fill="#1d1d1b"/><path d="M166.24,153.8h6.52v5.86h-6.52Zm0,9.7h6.52v24.62h-6.52Z" fill="#1d1d1b"/><path d="M183.37,166.86h.15a8,8,0,0,1,7.29-4c5.09,0,8.5,3.84,8.5,9.21v16.08h-6.53V173c0-2.64-1.53-4.51-4.27-4.51s-5,2.31-5,5.67v14H177V163.5h6.38Z" fill="#1d1d1b"/><path d="M201.47,163.5h3.41v-7.68h6.38v7.68h4.22v4.32h-4.22v13.06a2.16,2.16,0,0,0,2.45,2.44c.81,0,1.92,0,1.92,0v4.8s-1.49.09-4.08.09c-3.17,0-6.67-1.25-6.67-5.9V167.82h-3.41Z" fill="#1d1d1b"/><path d="M217.45,175.79c0-7.3,5-13,12.15-13,7.92,0,12.14,6,12.14,14.83H223.88c.48,3.79,2.6,6.14,6.29,6.14a4.61,4.61,0,0,0,4.76-3h6.43c-.91,4.37-4.8,8.07-11.14,8.07C222.06,188.85,217.45,183.13,217.45,175.79Zm6.53-2.64h11c-.2-3.12-2.26-5.28-5.24-5.28C226.24,167.87,224.56,169.93,224,173.15Z" fill="#1d1d1b"/><path d="M251.15,166.86h.14a8,8,0,0,1,7.3-4c5.09,0,8.5,3.84,8.5,9.21v16.08h-6.53V173c0-2.64-1.54-4.51-4.28-4.51s-5,2.31-5,5.67v14h-6.53V163.5h6.39Z" fill="#1d1d1b"/><path d="M269.91,175.84c0-7.68,4.37-13,10.52-13a7.82,7.82,0,0,1,7,3.64h.14V153.8h6.53v34.32h-6.29v-3.21h-.09a8.21,8.21,0,0,1-7.35,3.94C274.14,188.85,269.91,183.8,269.91,175.84Zm17.77.14c0-4.7-1.54-7.87-5.72-7.87-3.6,0-5.42,3.17-5.42,7.73,0,4.75,1.87,7.53,5.23,7.53C285.66,183.37,287.68,180.49,287.68,176Z" fill="#1d1d1b"/><path d="M297.08,175.79c0-7.3,4.95-13,12.15-13,7.92,0,12.14,6,12.14,14.83H303.51c.48,3.79,2.6,6.14,6.29,6.14a4.6,4.6,0,0,0,4.76-3H321c-.91,4.37-4.8,8.07-11.14,8.07C301.69,188.85,297.08,183.13,297.08,175.79Zm6.53-2.64h10.95c-.2-3.12-2.26-5.28-5.24-5.28C305.87,167.87,304.19,169.93,303.61,173.15Z" fill="#1d1d1b"/><path d="M323.19,175.84c0-7.68,4.37-13,10.52-13a7.82,7.82,0,0,1,7,3.64h.14V153.8h6.53v34.32h-6.29v-3.21H341a8.22,8.22,0,0,1-7.35,3.94C327.42,188.85,323.19,183.8,323.19,175.84ZM341,176c0-4.7-1.54-7.87-5.72-7.87-3.6,0-5.42,3.17-5.42,7.73,0,4.75,1.87,7.53,5.23,7.53C338.94,183.37,341,180.49,341,176Z" fill="#1d1d1b"/><path d="M358.18,163.5h3.41v-7.68H368v7.68h4.22v4.32H368v13.06a2.16,2.16,0,0,0,2.45,2.44c.81,0,1.92,0,1.92,0v4.8s-1.49.09-4.08.09c-3.17,0-6.68-1.25-6.68-5.9V167.82h-3.41Z" fill="#1d1d1b"/><path d="M374.12,175.84c0-7.35,5.23-13,12.87-13s12.86,5.66,12.86,13-5.23,13-12.86,13S374.12,183.18,374.12,175.84Zm19.11,0c0-4.8-2.26-8.07-6.24-8.07s-6.24,3.27-6.24,8.07,2.2,8,6.24,8S393.23,180.64,393.23,175.84Z" fill="#1d1d1b"/><path d="M46.67,242h-.1v3.07H40.29V210.78h6.52v12.67H47a7.69,7.69,0,0,1,6.86-3.65c6.19,0,10.61,5.33,10.61,13,0,8-4.22,13-10.42,13A8.2,8.2,0,0,1,46.67,242Zm11.14-9.22c0-4.56-1.83-7.73-5.48-7.73-4.12,0-5.66,3.32-5.66,7.88s2.26,7.39,5.9,7.39C55.93,240.35,57.81,237.56,57.81,232.81Z" fill="#1d1d1b"/><path d="M66.25,232.76c0-7.29,5-13,12.15-13,7.92,0,12.14,6,12.14,14.84H72.69c.48,3.79,2.59,6.14,6.28,6.14a4.6,4.6,0,0,0,4.76-3h6.43c-.91,4.36-4.8,8.06-11.14,8.06C70.86,245.82,66.25,240.11,66.25,232.76Zm6.53-2.64h11c-.2-3.12-2.26-5.28-5.24-5.28C75,224.84,73.36,226.91,72.78,230.12Z" fill="#1d1d1b"/><path d="M100.19,220.47h3.41v-7.68H110v7.68h4.23v4.33H110v13a2.16,2.16,0,0,0,2.45,2.45c.82,0,1.92-.05,1.92-.05v4.8s-1.49.1-4.08.1c-3.17,0-6.67-1.25-6.67-5.91V224.8h-3.41Z" fill="#1d1d1b"/><path d="M124.09,223.69h.15a7.84,7.84,0,0,1,7.15-3.89c5.09,0,8.5,3.84,8.5,9.22V245.1h-6.53V230c0-2.64-1.54-4.51-4.28-4.51s-5,2.3-5,5.66v14h-6.53V210.78h6.53Z" fill="#1d1d1b"/><path d="M142.72,232.76c0-7.29,4.94-13,12.14-13,7.92,0,12.15,6,12.15,14.84H149.15c.48,3.79,2.59,6.14,6.29,6.14a4.6,4.6,0,0,0,4.75-3h6.43c-.91,4.36-4.8,8.06-11.13,8.06C147.32,245.82,142.72,240.11,142.72,232.76Zm6.52-2.64h10.95c-.19-3.12-2.26-5.28-5.23-5.28C151.5,224.84,149.82,226.91,149.24,230.12Z" fill="#1d1d1b"/><path d="M176.89,232.81c0-7.34,4.8-13,12.29-13,6.38,0,10.32,3.7,11.18,9H194a4.51,4.51,0,0,0-4.51-3.79c-3.94,0-5.95,3-5.95,7.77s1.87,7.78,5.85,7.78a4.61,4.61,0,0,0,4.95-4.18h6.28c-.43,5.23-4.51,9.41-11.08,9.41C181.74,245.82,176.89,240.16,176.89,232.81Z" fill="#1d1d1b"/><path d="M202.24,232.81c0-7.34,5.23-13,12.86-13s12.87,5.67,12.87,13-5.24,13-12.87,13S202.24,240.16,202.24,232.81Zm19.1,0c0-4.8-2.25-8.06-6.24-8.06s-6.24,3.26-6.24,8.06,2.21,8,6.24,8S221.34,237.61,221.34,232.81Z" fill="#1d1d1b"/><path d="M231.08,210.78h6.53V245.1h-6.53Z" fill="#1d1d1b"/><path d="M240.73,232.81c0-7.68,4.37-13,10.51-13a7.81,7.81,0,0,1,7,3.65h.15V210.78h6.53V245.1h-6.29v-3.22h-.1a8.18,8.18,0,0,1-7.34,3.94C245,245.82,240.73,240.78,240.73,232.81Zm17.76.15c0-4.71-1.53-7.88-5.71-7.88-3.6,0-5.42,3.17-5.42,7.73,0,4.75,1.87,7.54,5.23,7.54C256.48,240.35,258.49,237.47,258.49,233Z" fill="#1d1d1b"/><path d="M268.76,250.72a5.94,5.94,0,0,0,3.46-5.62h-3.51v-7h7v6.58a8.12,8.12,0,0,1-7,8.35Z" fill="#1d1d1b"/><path d="M287.63,220.47h6.28v3.08h.15a8.61,8.61,0,0,1,7.25-3.75c6.53,0,10.7,5.33,10.7,13,0,8-4.32,13-10.66,13a7.93,7.93,0,0,1-7.1-3.5h-.1v10.85h-6.52ZM305.39,233c0-4.65-1.64-7.92-5.67-7.92S294,228.59,294,233s2.06,7.4,5.95,7.4C303.27,240.4,305.39,237.66,305.39,233Z" fill="#1d1d1b"/><path d="M313.83,232.76c0-7.29,4.95-13,12.15-13,7.92,0,12.14,6,12.14,14.84H320.27c.48,3.79,2.59,6.14,6.28,6.14a4.6,4.6,0,0,0,4.76-3h6.43c-.91,4.36-4.8,8.06-11.14,8.06C318.44,245.82,313.83,240.11,313.83,232.76Zm6.53-2.64h10.95c-.2-3.12-2.26-5.28-5.24-5.28C322.62,224.84,320.94,226.91,320.36,230.12Z" fill="#1d1d1b"/><path d="M347.43,224.41h.15c1.49-2.78,3.17-4.22,6.05-4.22a4.09,4.09,0,0,1,1.53.19v5.71H355c-4.27-.43-7.35,1.83-7.35,7v12h-6.53V220.47h6.29Z" fill="#1d1d1b"/><path d="M356.74,220.47h3.36v-2.2c0-6,4.66-8.12,10.95-7.44v5c-3.07-.15-4.42.24-4.42,2.78v1.82h4.42V225h-4.42V245.1H360.1V225h-3.36Z" fill="#1d1d1b"/><path d="M372.15,232.76c0-7.29,5-13,12.15-13,7.92,0,12.14,6,12.14,14.84H378.59c.47,3.79,2.59,6.14,6.28,6.14a4.6,4.6,0,0,0,4.76-3h6.43c-.91,4.36-4.8,8.06-11.14,8.06C376.76,245.82,372.15,240.11,372.15,232.76Zm6.53-2.64h10.95c-.2-3.12-2.26-5.28-5.24-5.28C380.94,224.84,379.26,226.91,378.68,230.12Z" fill="#1d1d1b"/><path d="M398.26,232.81c0-7.34,4.8-13,12.29-13,6.39,0,10.32,3.7,11.19,9h-6.39a4.51,4.51,0,0,0-4.51-3.79c-3.94,0-5.95,3-5.95,7.77s1.87,7.78,5.86,7.78a4.59,4.59,0,0,0,4.94-4.18H422c-.43,5.23-4.51,9.41-11.09,9.41C403.11,245.82,398.26,240.16,398.26,232.81Z" fill="#1d1d1b"/><path d="M423.37,220.47h3.41v-7.68h6.38v7.68h4.23v4.33h-4.23v13a2.16,2.16,0,0,0,2.45,2.45c.82,0,1.92-.05,1.92-.05v4.8s-1.49.1-4.08.1c-3.17,0-6.67-1.25-6.67-5.91V224.8h-3.41Z" fill="#1d1d1b"/><path d="M440.89,250.72a5.93,5.93,0,0,0,3.45-5.62h-3.5v-7h7v6.58a8.13,8.13,0,0,1-7,8.35Z" fill="#1d1d1b"/><path d="M46.57,281.39h.15c1.49-2.79,3.17-4.23,6.05-4.23a4.31,4.31,0,0,1,1.53.19v5.72h-.14c-4.27-.43-7.35,1.82-7.35,7v12H40.29V277.45h6.28Z" fill="#1d1d1b"/><path d="M71.2,299.34h-.1c-1.25,1.87-3,3.31-7.25,3.31-5,0-8.59-2.64-8.59-7.53,0-5.43,4.42-7.16,9.89-7.92,4.08-.58,5.95-.92,5.95-2.79s-1.39-2.93-4.13-2.93c-3.07,0-4.56,1.11-4.75,3.46H56.41c.19-4.32,3.41-8.11,10.61-8.11,7.39,0,10.37,3.31,10.37,9.07v12.53c0,1.87.29,3,.87,3.41v.24H72A6.56,6.56,0,0,1,71.2,299.34Zm0-5.95v-3.7a18.25,18.25,0,0,1-4.56,1.44c-3.41.77-5.09,1.54-5.09,3.84s1.53,3.12,3.84,3.12C69.18,298.09,71.25,295.79,71.25,293.39Z" fill="#1d1d1b"/><path d="M79.64,277.45h3.41v-7.68h6.39v7.68h4.22v4.32H89.44v13.06a2.16,2.16,0,0,0,2.45,2.45c.81,0,1.92,0,1.92,0V302s-1.49.09-4.08.09c-3.17,0-6.68-1.24-6.68-5.9V281.77H79.64Z" fill="#1d1d1b"/><path d="M97,267.75h6.53v5.86H97Zm0,9.7h6.53v24.63H97Z" fill="#1d1d1b"/><path d="M106.57,289.79c0-7.35,5.23-13,12.87-13s12.86,5.66,12.86,13-5.23,13-12.86,13S106.57,297.13,106.57,289.79Zm19.11,0c0-4.8-2.26-8.07-6.24-8.07s-6.24,3.27-6.24,8.07,2.2,8,6.24,8S125.68,294.59,125.68,289.79Z" fill="#1d1d1b"/><path d="M141.71,280.81h.14a8,8,0,0,1,7.3-4c5.09,0,8.5,3.84,8.5,9.22v16.08h-6.53V287c0-2.64-1.54-4.52-4.28-4.52s-5,2.31-5,5.67v14h-6.53V277.45h6.39Z" fill="#1d1d1b"/><path d="M176.41,299.34h-.09c-1.25,1.87-3,3.31-7.25,3.31-5,0-8.6-2.64-8.6-7.53,0-5.43,4.42-7.16,9.89-7.92,4.08-.58,6-.92,6-2.79s-1.4-2.93-4.13-2.93c-3.07,0-4.56,1.11-4.75,3.46h-5.81c.19-4.32,3.41-8.11,10.61-8.11,7.39,0,10.36,3.31,10.36,9.07v12.53c0,1.87.29,3,.87,3.41v.24h-6.29A6.88,6.88,0,0,1,176.41,299.34Zm.05-5.95v-3.7a18.12,18.12,0,0,1-4.56,1.44c-3.41.77-5.09,1.54-5.09,3.84s1.54,3.12,3.84,3.12C174.4,298.09,176.46,295.79,176.46,293.39Z" fill="#1d1d1b"/><path d="M186.83,267.75h6.52v34.33h-6.52Z" fill="#1d1d1b"/><path d="M204.3,277.45h3.41v-7.68h6.38v7.68h4.23v4.32h-4.23v13.06a2.16,2.16,0,0,0,2.45,2.45c.82,0,1.92,0,1.92,0V302s-1.49.09-4.08.09c-3.17,0-6.67-1.24-6.67-5.9V281.77H204.3Z" fill="#1d1d1b"/><path d="M222.63,305h2.31c2.59,0,3.65-1.35,3.65-3.37,0-1.34-.48-2.92-1.88-6.67l-6.62-17.52H227l3.65,11.09c.77,2.26,1.59,5.38,1.59,5.38h.09s.67-3.12,1.44-5.38l3.46-11.09h6.58l-8.6,25.25c-1.87,5.47-3.69,7.44-8.69,7.44h-3.84Z" fill="#1d1d1b"/><path d="M246,277.45h6.29v3.07h.14a8.61,8.61,0,0,1,7.25-3.74c6.53,0,10.71,5.33,10.71,13,0,8-4.32,13-10.66,13-3.46,0-5.71-1.39-7.1-3.51h-.1v10.85H246ZM263.72,290c0-4.66-1.63-7.92-5.66-7.92s-5.71,3.5-5.71,7.92,2.06,7.39,6,7.39C261.61,297.37,263.72,294.64,263.72,290Z" fill="#1d1d1b"/><path d="M272.17,289.74c0-7.3,4.94-13,12.14-13,7.92,0,12.15,6.05,12.15,14.83H278.6c.48,3.79,2.59,6.15,6.29,6.15a4.6,4.6,0,0,0,4.75-3h6.44c-.92,4.37-4.81,8.07-11.14,8.07C276.78,302.8,272.17,297.08,272.17,289.74Zm6.53-2.64h10.94c-.19-3.12-2.25-5.28-5.23-5.28C281,281.82,279.27,283.88,278.7,287.1Z" fill="#1d1d1b"/><path d="M297.61,277.45H301v-2.21c0-6,4.66-8.11,10.94-7.44v5c-3.07-.14-4.41.24-4.41,2.79v1.82h4.41V282H307.5v20.12H301V282h-3.36Z" fill="#1d1d1b"/><path d="M329,299.34h-.09c-1.25,1.87-3,3.31-7.25,3.31-5,0-8.59-2.64-8.59-7.53,0-5.43,4.41-7.16,9.88-7.92,4.08-.58,6-.92,6-2.79s-1.39-2.93-4.13-2.93c-3.07,0-4.56,1.11-4.75,3.46h-5.81c.19-4.32,3.41-8.11,10.61-8.11,7.39,0,10.37,3.31,10.37,9.07v12.53c0,1.87.28,3,.86,3.41v.24h-6.29A6.88,6.88,0,0,1,329,299.34Zm.05-5.95v-3.7a18.12,18.12,0,0,1-4.56,1.44c-3.41.77-5.09,1.54-5.09,3.84s1.54,3.12,3.84,3.12C326.94,298.09,329,295.79,329,293.39Z" fill="#1d1d1b"/><path d="M338.07,289.79c0-7.35,4.8-13,12.29-13,6.39,0,10.32,3.69,11.19,9h-6.39a4.51,4.51,0,0,0-4.51-3.79c-3.94,0-5.95,3-5.95,7.78s1.87,7.77,5.85,7.77a4.6,4.6,0,0,0,4.95-4.17h6.29c-.44,5.23-4.52,9.41-11.09,9.41C342.92,302.8,338.07,297.13,338.07,289.79Z" fill="#1d1d1b"/><path d="M363.42,289.74c0-7.3,4.94-13,12.14-13,7.92,0,12.15,6.05,12.15,14.83H369.85c.48,3.79,2.59,6.15,6.29,6.15a4.6,4.6,0,0,0,4.75-3h6.43c-.91,4.37-4.8,8.07-11.14,8.07C368,302.8,363.42,297.08,363.42,289.74Zm6.52-2.64h10.95c-.19-3.12-2.26-5.28-5.23-5.28C372.2,281.82,370.52,283.88,369.94,287.1Z" fill="#1d1d1b"/><path d="M40.29,324.73h6.52v5.86H40.29Zm0,9.7h6.52v24.62H40.29Z" fill="#1d1d1b"/><path d="M49.6,334.43H53v-7.68h6.38v7.68h4.22v4.32H59.39V351.8a2.16,2.16,0,0,0,2.45,2.45c.81,0,1.92-.05,1.92-.05V359s-1.49.1-4.08.1c-3.17,0-6.67-1.25-6.67-5.9V338.75H49.6Z" fill="#1d1d1b"/><path d="M67.07,324.73h5.71v12H67.07Z" fill="#1d1d1b"/><path d="M73.21,351.08h6.05c.43,2.84,2.45,4.08,5.38,4.08s4.51-1.1,4.51-2.83c0-2.35-3.12-2.59-6.48-3.26-4.42-.87-8.74-2.07-8.74-7.44s4.42-7.88,10-7.88c6.48,0,10.08,3.22,10.56,8.16H88.62c-.29-2.63-2-3.59-4.75-3.59-2.55,0-4.23,1-4.23,2.73,0,2.11,3.27,2.31,6.77,3,4.13.86,8.69,2,8.69,7.77,0,4.95-4.22,7.92-10.37,7.92C77.58,359.77,73.6,356.32,73.21,351.08Z" fill="#1d1d1b"/><path d="M106.09,334.43h6.29v3.07h.14a8.62,8.62,0,0,1,7.25-3.75c6.53,0,10.71,5.33,10.71,13,0,8-4.32,13-10.66,13-3.46,0-5.71-1.39-7.1-3.5h-.1v10.85h-6.53ZM123.85,347c0-4.66-1.63-7.92-5.66-7.92s-5.71,3.5-5.71,7.92,2.06,7.39,6,7.39C121.74,354.35,123.85,351.61,123.85,347Z" fill="#1d1d1b"/><path d="M132.3,346.76c0-7.34,5.23-13,12.86-13s12.87,5.67,12.87,13-5.23,13-12.87,13S132.3,354.11,132.3,346.76Zm19.1,0c0-4.8-2.25-8.06-6.24-8.06s-6.24,3.26-6.24,8.06,2.21,8,6.24,8S151.4,351.56,151.4,346.76Z" fill="#1d1d1b"/><path d="M167.34,338.36h.14c1.49-2.78,3.17-4.22,6.05-4.22a4.41,4.41,0,0,1,1.54.19V340h-.15c-4.27-.43-7.34,1.83-7.34,7v12h-6.53V334.43h6.29Z" fill="#1d1d1b"/><path d="M176.65,334.43h3.41v-7.68h6.38v7.68h4.23v4.32h-4.23V351.8a2.16,2.16,0,0,0,2.45,2.45c.82,0,1.92-.05,1.92-.05V359s-1.49.1-4.08.1c-3.17,0-6.67-1.25-6.67-5.9V338.75h-3.41Z" fill="#1d1d1b"/><path d="M200.31,338.36h.15c1.49-2.78,3.17-4.22,6-4.22a4.31,4.31,0,0,1,1.53.19V340h-.14c-4.27-.43-7.35,1.83-7.35,7v12H194V334.43h6.28Z" fill="#1d1d1b"/><path d="M224.94,356.32h-.1c-1.24,1.87-3,3.31-7.24,3.31-5,0-8.6-2.64-8.6-7.54,0-5.42,4.42-7.15,9.89-7.92,4.08-.57,6-.91,6-2.78s-1.39-2.93-4.12-2.93c-3.08,0-4.57,1.1-4.76,3.45h-5.81c.2-4.32,3.41-8.11,10.61-8.11,7.4,0,10.37,3.32,10.37,9.07V355.4c0,1.88.29,3,.87,3.41v.24h-6.29A6.51,6.51,0,0,1,224.94,356.32Zm.05-6v-3.69a18.54,18.54,0,0,1-4.56,1.44c-3.41.77-5.09,1.53-5.09,3.84s1.54,3.12,3.84,3.12C222.92,355.07,225,352.76,225,350.36Z" fill="#1d1d1b"/><path d="M235.59,362h2.31c2.59,0,3.65-1.34,3.65-3.36,0-1.34-.48-2.93-1.88-6.67l-6.62-17.52h6.86l3.65,11.09c.77,2.25,1.59,5.37,1.59,5.37h.09s.67-3.12,1.44-5.37l3.46-11.09h6.58l-8.6,25.25c-1.87,5.47-3.69,7.44-8.69,7.44h-3.84Z" fill="#1d1d1b"/><path d="M257.05,346.72c0-7.3,4.94-13,12.14-13,7.92,0,12.15,6.05,12.15,14.84H263.48c.48,3.79,2.59,6.14,6.29,6.14a4.6,4.6,0,0,0,4.75-3H281c-.92,4.37-4.81,8.06-11.14,8.06C261.66,359.77,257.05,354.06,257.05,346.72Zm6.53-2.64h10.94c-.19-3.13-2.25-5.29-5.23-5.29C265.83,338.79,264.15,340.86,263.58,344.08Z" fill="#1d1d1b"/><path d="M283.16,346.76c0-7.68,4.37-13,10.51-13a7.81,7.81,0,0,1,7,3.65h.15V324.73h6.53v34.32H301v-3.21h-.1a8.19,8.19,0,0,1-7.34,3.93C287.39,359.77,283.16,354.73,283.16,346.76Zm17.76.15c0-4.71-1.53-7.87-5.71-7.87-3.6,0-5.42,3.16-5.42,7.72,0,4.76,1.87,7.54,5.23,7.54C298.91,354.3,300.92,351.42,300.92,346.91Z" fill="#1d1d1b"/><path d="M318.15,334.43h3.41v-7.68h6.38v7.68h4.23v4.32h-4.23V351.8a2.16,2.16,0,0,0,2.45,2.45c.82,0,1.92-.05,1.92-.05V359s-1.49.1-4.08.1c-3.17,0-6.67-1.25-6.67-5.9V338.75h-3.41Z" fill="#1d1d1b"/><path d="M334.14,346.76c0-7.34,5.23-13,12.86-13s12.87,5.67,12.87,13-5.24,13-12.87,13S334.14,354.11,334.14,346.76Zm19.1,0c0-4.8-2.26-8.06-6.24-8.06s-6.24,3.26-6.24,8.06,2.21,8,6.24,8S353.24,351.56,353.24,346.76Z" fill="#1d1d1b"/><path d="M377.34,356h-.1v3.07H371V324.73h6.53V337.4h.14a7.72,7.72,0,0,1,6.87-3.65c6.19,0,10.61,5.33,10.61,13,0,8-4.23,13-10.42,13A8.18,8.18,0,0,1,377.34,356Zm11.13-9.22c0-4.56-1.82-7.72-5.47-7.72-4.13,0-5.66,3.31-5.66,7.87s2.25,7.39,5.9,7.39C386.6,354.3,388.47,351.52,388.47,346.76Z" fill="#1d1d1b"/><path d="M396.92,346.72c0-7.3,4.94-13,12.14-13,7.92,0,12.15,6.05,12.15,14.84H403.35c.48,3.79,2.59,6.14,6.29,6.14a4.6,4.6,0,0,0,4.75-3h6.43c-.91,4.37-4.8,8.06-11.13,8.06C401.53,359.77,396.92,354.06,396.92,346.72Zm6.53-2.64h10.94c-.19-3.13-2.25-5.29-5.23-5.29C405.7,338.79,404,340.86,403.45,344.08Z" fill="#1d1d1b"/><path d="M423.65,352.09h7v7h-7Z" fill="#1d1d1b"/><path d="M39,381.71h27.6v5.85H56.32V416h-7V387.56H39Z" fill="#1d1d1b"/><path d="M76.14,394.62h.15a7.84,7.84,0,0,1,7.15-3.89c5.09,0,8.5,3.84,8.5,9.22V416H85.41V400.91c0-2.64-1.54-4.51-4.28-4.51s-5,2.3-5,5.66v14H69.61V381.71h6.53Z" fill="#1d1d1b"/><path d="M94.76,403.69c0-7.29,4.95-13,12.15-13,7.92,0,12.15,6,12.15,14.83H101.2c.48,3.8,2.59,6.15,6.29,6.15a4.59,4.59,0,0,0,4.75-3h6.43c-.91,4.37-4.8,8.07-11.14,8.07C99.37,416.75,94.76,411,94.76,403.69Zm6.53-2.64h10.95c-.19-3.12-2.26-5.28-5.23-5.28C103.55,395.77,101.87,397.84,101.29,401.05Z" fill="#1d1d1b"/><path d="M128.36,395.34h.15c1.49-2.78,3.17-4.22,6.05-4.22a4.09,4.09,0,0,1,1.53.19V397H136c-4.27-.43-7.35,1.82-7.35,7v12h-6.52V391.4h6.28Z" fill="#1d1d1b"/><path d="M137,403.69c0-7.29,4.95-13,12.15-13,7.92,0,12.14,6,12.14,14.83H143.44c.48,3.8,2.59,6.15,6.28,6.15a4.6,4.6,0,0,0,4.76-3h6.43c-.91,4.37-4.8,8.07-11.14,8.07C141.61,416.75,137,411,137,403.69Zm6.53-2.64h10.95c-.19-3.12-2.26-5.28-5.23-5.28C145.79,395.77,144.11,397.84,143.53,401.05Z" fill="#1d1d1b"/><path d="M172.38,381.71h6.53v5.85h-6.53Zm0,9.69h6.53V416h-6.53Z" fill="#1d1d1b"/><path d="M181.6,408.06h6c.44,2.83,2.45,4.08,5.38,4.08s4.51-1.1,4.51-2.83c0-2.35-3.12-2.59-6.48-3.27-4.41-.86-8.73-2.06-8.73-7.44s4.41-7.87,10-7.87c6.48,0,10.08,3.22,10.56,8.16H197c-.29-2.64-2-3.6-4.76-3.6-2.54,0-4.22,1-4.22,2.74,0,2.11,3.26,2.3,6.77,3,4.13.87,8.69,2,8.69,7.78,0,4.94-4.23,7.92-10.37,7.92C186,416.75,182,413.29,181.6,408.06Z" fill="#1d1d1b"/><path d="M229.21,413.29h-.09c-1.25,1.87-3,3.32-7.25,3.32-5,0-8.6-2.65-8.6-7.54,0-5.43,4.42-7.15,9.89-7.92,4.08-.58,6-.91,6-2.79s-1.4-2.92-4.13-2.92c-3.07,0-4.56,1.1-4.75,3.45h-5.81c.19-4.32,3.41-8.11,10.61-8.11,7.39,0,10.36,3.31,10.36,9.07v12.53c0,1.87.29,3,.87,3.41V416H230A6.83,6.83,0,0,1,229.21,413.29Zm0-6v-3.7a17.72,17.72,0,0,1-4.56,1.44c-3.41.77-5.09,1.54-5.09,3.84s1.54,3.12,3.84,3.12C227.2,412,229.26,409.74,229.26,407.34Z" fill="#1d1d1b"/><path d="M246.06,408.06h6.05c.43,2.83,2.45,4.08,5.37,4.08S262,411,262,409.31c0-2.35-3.12-2.59-6.49-3.27-4.41-.86-8.73-2.06-8.73-7.44s4.41-7.87,10-7.87c6.48,0,10.08,3.22,10.56,8.16h-5.9c-.29-2.64-2-3.6-4.75-3.6-2.55,0-4.23,1-4.23,2.74,0,2.11,3.26,2.3,6.77,3,4.13.87,8.69,2,8.69,7.78,0,4.94-4.23,7.92-10.37,7.92C250.43,416.75,246.44,413.29,246.06,408.06Z" fill="#1d1d1b"/><path d="M286.43,416v-2.88h-.15a7.89,7.89,0,0,1-7,3.55c-5.48,0-8.55-3.5-8.55-8.88V391.4h6.48v15.32c0,2.88,1.3,4.46,4.08,4.46,3.07,0,4.95-2.3,4.95-5.57V391.4h6.53V416Z" fill="#1d1d1b"/><path d="M303.32,413h-.09V416h-6.29V381.71h6.53v12.67h.14a7.7,7.7,0,0,1,6.86-3.65c6.2,0,10.61,5.33,10.61,13,0,8-4.22,13-10.41,13A8.2,8.2,0,0,1,303.32,413Zm11.14-9.22c0-4.56-1.82-7.73-5.47-7.73-4.13,0-5.67,3.31-5.67,7.87s2.26,7.4,5.91,7.4C312.59,411.28,314.46,408.49,314.46,403.74Z" fill="#1d1d1b"/><path d="M321.94,391.4h3.41v-7.68h6.39v7.68H336v4.32h-4.22v13.06a2.16,2.16,0,0,0,2.45,2.45c.81,0,1.92-.05,1.92-.05V416s-1.49.1-4.08.1c-3.17,0-6.68-1.25-6.68-5.91V395.72h-3.41Z" fill="#1d1d1b"/><path d="M339.42,381.71h6.52V416h-6.52Z" fill="#1d1d1b"/><path d="M349.06,403.69c0-7.29,4.95-13,12.15-13,7.92,0,12.14,6,12.14,14.83H355.5c.48,3.8,2.59,6.15,6.29,6.15a4.59,4.59,0,0,0,4.75-3H373c-.91,4.37-4.8,8.07-11.14,8.07C353.67,416.75,349.06,411,349.06,403.69Zm6.53-2.64h11c-.19-3.12-2.26-5.28-5.23-5.28C357.85,395.77,356.17,397.84,355.59,401.05Z" fill="#1d1d1b"/><path d="M38.37,448.38h6.48l3,11.42c.53,2,1.11,4.61,1.11,4.61H49s.53-2.64,1.06-4.65l3.07-11.38h5.57l3.21,11.38c.53,2.06,1.16,4.65,1.16,4.65h.09s.58-2.59,1.11-4.61l3.12-11.42h6.33L66.4,473h-6l-3.27-12.09c-.53-2-1.1-4.27-1.1-4.27H56l-1.15,4.27L51.47,473h-5.9Z" fill="#1d1d1b"/><path d="M90.11,470.27H90c-1.24,1.87-3,3.31-7.24,3.31-5,0-8.6-2.64-8.6-7.54,0-5.42,4.42-7.15,9.89-7.92,4.08-.57,6-.91,6-2.78s-1.39-2.93-4.12-2.93c-3.08,0-4.56,1.11-4.76,3.46h-5.8c.19-4.32,3.4-8.12,10.6-8.12,7.4,0,10.37,3.32,10.37,9.08v12.53c0,1.87.29,3,.87,3.4V473H90.88A6.51,6.51,0,0,1,90.11,470.27Zm0-5.95v-3.7a18.12,18.12,0,0,1-4.56,1.44c-3.41.77-5.09,1.54-5.09,3.84S82.05,469,84.35,469C88.09,469,90.16,466.72,90.16,464.32Z" fill="#1d1d1b"/><path d="M106.72,452.32h.14c1.49-2.79,3.17-4.23,6-4.23a4.41,4.41,0,0,1,1.54.19V454h-.15c-4.27-.43-7.34,1.83-7.34,7v12h-6.53V448.38h6.29Z" fill="#1d1d1b"/><path d="M117.28,448.38h6.28v3.31h.15a8,8,0,0,1,7.15-4,7.34,7.34,0,0,1,6.82,4.32h.09a8.6,8.6,0,0,1,7.4-4.32c5.18,0,8.11,3.36,8.11,8.73V473h-6.53V457.55c0-2.79-1.39-4.23-3.79-4.23-2.74,0-4.42,2.12-4.42,5.38V473H132V457.55c0-2.79-1.39-4.23-3.79-4.23-2.64,0-4.41,2.12-4.41,5.38V473h-6.53Z" fill="#1d1d1b"/><path d="M155.39,448.38h3.41V440.7h6.38v7.68h4.23v4.32h-4.23v13.06a2.16,2.16,0,0,0,2.45,2.44c.82,0,1.92,0,1.92,0V473s-1.49.09-4.08.09c-3.17,0-6.67-1.25-6.67-5.9V452.7h-3.41Z" fill="#1d1d1b"/><path d="M179.29,451.59h.15a7.84,7.84,0,0,1,7.15-3.88c5.09,0,8.5,3.84,8.5,9.21V473h-6.53V457.88c0-2.64-1.54-4.51-4.28-4.51s-5,2.31-5,5.67v14h-6.53V438.68h6.53Z" fill="#1d1d1b"/><path d="M207.18,438.68h6.53v5.86h-6.53Zm0,9.7h6.53V473h-6.53Z" fill="#1d1d1b"/><path d="M224.32,451.74h.14a8,8,0,0,1,7.3-4c5.09,0,8.49,3.84,8.49,9.21V473h-6.53V457.88c0-2.64-1.53-4.51-4.27-4.51s-5,2.31-5,5.67v14h-6.53V448.38h6.39Z" fill="#1d1d1b"/><path d="M250.91,448.38h3.4V440.7h6.39v7.68h4.22v4.32H260.7v13.06a2.16,2.16,0,0,0,2.45,2.44c.81,0,1.92,0,1.92,0V473s-1.49.09-4.08.09c-3.17,0-6.68-1.25-6.68-5.9V452.7h-3.4Z" fill="#1d1d1b"/><path d="M274.81,451.59H275a7.84,7.84,0,0,1,7.15-3.88c5.09,0,8.49,3.84,8.49,9.21V473h-6.52V457.88c0-2.64-1.54-4.51-4.28-4.51s-5,2.31-5,5.67v14h-6.53V438.68h6.53Z" fill="#1d1d1b"/><path d="M293.43,460.67c0-7.3,4.95-13,12.15-13,7.92,0,12.14,6,12.14,14.83H299.87c.48,3.79,2.59,6.14,6.28,6.14a4.6,4.6,0,0,0,4.76-3h6.43c-.91,4.37-4.8,8.06-11.14,8.06C298,473.72,293.43,468,293.43,460.67ZM300,458h11c-.19-3.12-2.26-5.28-5.23-5.28C302.22,452.75,300.54,454.81,300,458Z" fill="#1d1d1b"/><path d="M38.75,522h6c.43,2.83,2.45,4.08,5.37,4.08s4.52-1.1,4.52-2.83c0-2.35-3.12-2.59-6.48-3.26-4.42-.87-8.74-2.07-8.74-7.44s4.42-7.88,10-7.88c6.48,0,10.08,3.22,10.56,8.16h-5.9c-.29-2.64-2-3.6-4.75-3.6-2.55,0-4.23,1-4.23,2.74,0,2.11,3.27,2.3,6.77,3,4.13.87,8.69,2,8.69,7.78,0,5-4.23,7.92-10.37,7.92C43.12,530.7,39.13,527.24,38.75,522Z" fill="#1d1d1b"/><path d="M70.09,508.57h.15a7.84,7.84,0,0,1,7.15-3.89c5.09,0,8.5,3.84,8.5,9.22V530H79.36V514.86c0-2.64-1.54-4.51-4.27-4.51-2.88,0-5,2.3-5,5.66v14H63.56V495.66h6.53Z" fill="#1d1d1b"/><path d="M104.65,527.24h-.09c-1.25,1.88-3,3.32-7.25,3.32-5,0-8.59-2.64-8.59-7.54,0-5.42,4.41-7.15,9.88-7.92,4.08-.58,6-.91,6-2.78s-1.39-2.93-4.13-2.93c-3.07,0-4.56,1.1-4.75,3.45H89.87c.19-4.32,3.41-8.11,10.61-8.11,7.39,0,10.37,3.31,10.37,9.07v12.53c0,1.87.28,3,.86,3.41V530h-6.29A6.83,6.83,0,0,1,104.65,527.24Zm0-6V517.6a18.54,18.54,0,0,1-4.56,1.44c-3.41.76-5.09,1.53-5.09,3.84S96.59,526,98.89,526C102.64,526,104.7,523.69,104.7,521.29Z" fill="#1d1d1b"/><path d="M115,505.36h6.29v3.07h.14a8.62,8.62,0,0,1,7.25-3.75c6.53,0,10.71,5.33,10.71,13,0,8-4.32,13-10.66,13-3.46,0-5.71-1.39-7.1-3.5h-.1v10.85H115Zm17.76,12.52c0-4.65-1.63-7.92-5.66-7.92s-5.71,3.51-5.71,7.92,2.06,7.4,6,7.4C130.62,525.28,132.73,522.54,132.73,517.88Z" fill="#1d1d1b"/><path d="M141.18,517.64c0-7.29,4.94-13,12.15-13,7.92,0,12.14,6.05,12.14,14.84H147.61c.48,3.79,2.59,6.14,6.29,6.14a4.59,4.59,0,0,0,4.75-3h6.44c-.92,4.36-4.8,8.06-11.14,8.06C145.79,530.7,141.18,525,141.18,517.64Zm6.53-2.64h10.94c-.19-3.12-2.25-5.28-5.23-5.28C150,509.72,148.28,511.79,147.71,515Z" fill="#1d1d1b"/><path d="M167,522h6c.44,2.83,2.45,4.08,5.38,4.08s4.51-1.1,4.51-2.83c0-2.35-3.12-2.59-6.48-3.26-4.41-.87-8.73-2.07-8.73-7.44s4.41-7.88,10-7.88c6.48,0,10.08,3.22,10.56,8.16h-5.91c-.28-2.64-2-3.6-4.75-3.6-2.54,0-4.22,1-4.22,2.74,0,2.11,3.26,2.3,6.77,3,4.12.87,8.69,2,8.69,7.78,0,5-4.23,7.92-10.37,7.92C171.32,530.7,167.34,527.24,167,522Z" fill="#1d1d1b"/><path d="M198.39,505.36h3.41v-7.69h6.39v7.69h4.22v4.32h-4.22v13.05a2.16,2.16,0,0,0,2.45,2.45c.81,0,1.92,0,1.92,0v4.8s-1.49.1-4.09.1c-3.16,0-6.67-1.25-6.67-5.91V509.68h-3.41Z" fill="#1d1d1b"/><path d="M222.3,508.57h.14a7.86,7.86,0,0,1,7.16-3.89c5.08,0,8.49,3.84,8.49,9.22V530h-6.53V514.86c0-2.64-1.53-4.51-4.27-4.51s-5,2.3-5,5.66v14h-6.53V495.66h6.53Z" fill="#1d1d1b"/><path d="M256.86,527.24h-.1c-1.25,1.88-3,3.32-7.25,3.32-5,0-8.59-2.64-8.59-7.54,0-5.42,4.42-7.15,9.89-7.92,4.08-.58,5.95-.91,5.95-2.78s-1.39-2.93-4.13-2.93c-3.07,0-4.56,1.1-4.75,3.45h-5.81c.19-4.32,3.41-8.11,10.61-8.11,7.39,0,10.37,3.31,10.37,9.07v12.53c0,1.87.29,3,.87,3.41V530h-6.29A6.52,6.52,0,0,1,256.86,527.24Zm.05-6V517.6a18.67,18.67,0,0,1-4.56,1.44c-3.41.76-5.09,1.53-5.09,3.84s1.53,3.12,3.84,3.12C254.84,526,256.91,523.69,256.91,521.29Z" fill="#1d1d1b"/><path d="M265.26,505.36h3.41v-7.69h6.38v7.69h4.22v4.32h-4.22v13.05a2.16,2.16,0,0,0,2.45,2.45c.81,0,1.92,0,1.92,0v4.8s-1.49.1-4.08.1c-3.17,0-6.67-1.25-6.67-5.91V509.68h-3.41Z" fill="#1d1d1b"/><path d="M288.78,505.36h6.48l3,11.42c.53,2,1.11,4.61,1.11,4.61h.09s.53-2.64,1.06-4.66l3.07-11.37h5.57l3.22,11.37c.52,2.07,1.15,4.66,1.15,4.66h.09s.58-2.59,1.11-4.61l3.12-11.42h6.34L316.81,530h-5.95l-3.27-12.1c-.52-2-1.1-4.27-1.1-4.27h-.1l-1.15,4.27L301.88,530H296Z" fill="#1d1d1b"/><path d="M340.52,527.24h-.09c-1.25,1.88-3,3.32-7.25,3.32-5,0-8.6-2.64-8.6-7.54,0-5.42,4.42-7.15,9.89-7.92,4.08-.58,6-.91,6-2.78s-1.4-2.93-4.13-2.93c-3.08,0-4.56,1.1-4.75,3.45h-5.81c.19-4.32,3.4-8.11,10.61-8.11,7.39,0,10.36,3.31,10.36,9.07v12.53c0,1.87.29,3,.87,3.41V530h-6.29A6.83,6.83,0,0,1,340.52,527.24Zm.05-6V517.6A18.54,18.54,0,0,1,336,519c-3.41.76-5.09,1.53-5.09,3.84s1.54,3.12,3.84,3.12C338.51,526,340.57,523.69,340.57,521.29Z" fill="#1d1d1b"/><path d="M349.3,522h6.05c.43,2.83,2.45,4.08,5.38,4.08s4.51-1.1,4.51-2.83c0-2.35-3.12-2.59-6.48-3.26-4.42-.87-8.74-2.07-8.74-7.44s4.42-7.88,10-7.88c6.48,0,10.08,3.22,10.56,8.16h-5.91c-.28-2.64-2-3.6-4.75-3.6-2.54,0-4.22,1-4.22,2.74,0,2.11,3.26,2.3,6.77,3,4.12.87,8.68,2,8.68,7.78,0,5-4.22,7.92-10.37,7.92C353.67,530.7,349.69,527.24,349.3,522Z" fill="#1d1d1b"/><path d="M382.28,495.66h6.53V530h-6.53Z" fill="#1d1d1b"/><path d="M391.93,517.69c0-7.34,5.23-13,12.86-13s12.87,5.67,12.87,13-5.23,13-12.87,13S391.93,525,391.93,517.69Zm19.1,0c0-4.8-2.25-8.06-6.24-8.06s-6.24,3.26-6.24,8.06,2.21,8,6.24,8S411,522.49,411,517.69Z" fill="#1d1d1b"/><path d="M419.14,522h6.05c.43,2.83,2.45,4.08,5.38,4.08s4.51-1.1,4.51-2.83c0-2.35-3.12-2.59-6.48-3.26-4.42-.87-8.74-2.07-8.74-7.44s4.42-7.88,10-7.88c6.49,0,10.09,3.22,10.57,8.16h-5.91c-.29-2.64-2-3.6-4.75-3.6-2.55,0-4.23,1-4.23,2.74,0,2.11,3.27,2.3,6.77,3,4.13.87,8.69,2,8.69,7.78,0,5-4.22,7.92-10.37,7.92C423.51,530.7,419.53,527.24,419.14,522Z" fill="#1d1d1b"/><path d="M442.09,505.36h3.4v-7.69h6.39v7.69h4.22v4.32h-4.22v13.05a2.16,2.16,0,0,0,2.45,2.45c.81,0,1.92,0,1.92,0v4.8s-1.49.1-4.08.1c-3.17,0-6.68-1.25-6.68-5.91V509.68h-3.4Z" fill="#1d1d1b"/><path d="M39.09,574.67c0-7.35,5.23-13,12.86-13s12.87,5.66,12.87,13-5.24,13-12.87,13S39.09,582,39.09,574.67Zm19.1,0c0-4.8-2.26-8.07-6.24-8.07s-6.24,3.27-6.24,8.07,2.21,8,6.24,8S58.19,579.47,58.19,574.67Z" fill="#1d1d1b"/><path d="M65.15,562.33h6.62l3.94,12.77c.72,2.35,1.1,3.94,1.1,3.94h.1s.34-1.59,1.06-3.94l4-12.77h6.53L79.93,587H73.69Z" fill="#1d1d1b"/><path d="M88.81,574.62c0-7.3,5-13,12.15-13,7.92,0,12.14,6.05,12.14,14.83H95.25c.47,3.79,2.59,6.15,6.28,6.15a4.61,4.61,0,0,0,4.76-3h6.43c-.91,4.37-4.8,8.07-11.14,8.07C93.42,587.68,88.81,582,88.81,574.62ZM95.34,572h11c-.2-3.12-2.26-5.28-5.24-5.28C97.6,566.7,95.92,568.76,95.34,572Z" fill="#1d1d1b"/><path d="M122.41,566.27h.15c1.49-2.79,3.16-4.23,6-4.23a4.08,4.08,0,0,1,1.54.2V568H130c-4.28-.43-7.35,1.82-7.35,7v12h-6.53V562.33h6.29Z" fill="#1d1d1b"/><path d="M139.6,562.33H143v-7.68h6.39v7.68h4.22v4.32h-4.22v13.06a2.16,2.16,0,0,0,2.45,2.45c.81,0,1.92,0,1.92,0v4.8s-1.49.09-4.08.09c-3.17,0-6.68-1.24-6.68-5.9V566.65h-3.4Z" fill="#1d1d1b"/><path d="M163.5,565.55h.14a7.85,7.85,0,0,1,7.16-3.89c5.09,0,8.49,3.84,8.49,9.22V587h-6.53V571.84c0-2.64-1.53-4.52-4.27-4.52s-5,2.31-5,5.67v14H157V552.63h6.53Z" fill="#1d1d1b"/><path d="M182.12,574.62c0-7.3,4.95-13,12.15-13,7.92,0,12.14,6.05,12.14,14.83H188.56c.48,3.79,2.59,6.15,6.28,6.15a4.61,4.61,0,0,0,4.76-3H206c-.91,4.37-4.8,8.07-11.14,8.07C186.73,587.68,182.12,582,182.12,574.62Zm6.53-2.64H199.6c-.2-3.12-2.26-5.28-5.24-5.28C190.91,566.7,189.23,568.76,188.65,572Z" fill="#1d1d1b"/><path d="M218,589.89h2.3c2.59,0,3.65-1.35,3.65-3.36,0-1.35-.48-2.93-1.87-6.68l-6.63-17.52h6.87L226,573.42c.76,2.26,1.58,5.38,1.58,5.38h.1s.67-3.12,1.44-5.38l3.45-11.09h6.58l-8.59,25.25c-1.88,5.47-3.7,7.44-8.69,7.44H218Z" fill="#1d1d1b"/><path d="M239.43,574.62c0-7.3,4.95-13,12.15-13,7.92,0,12.14,6.05,12.14,14.83H245.87c.48,3.79,2.59,6.15,6.29,6.15a4.6,4.6,0,0,0,4.75-3h6.43c-.91,4.37-4.8,8.07-11.14,8.07C244,587.68,239.43,582,239.43,574.62ZM246,572h11c-.19-3.12-2.26-5.28-5.23-5.28C248.22,566.7,246.54,568.76,246,572Z" fill="#1d1d1b"/><path d="M281.48,584.22h-.09c-1.25,1.87-3,3.31-7.25,3.31-5,0-8.59-2.64-8.59-7.53,0-5.43,4.41-7.16,9.88-7.92,4.08-.58,6-.92,6-2.79s-1.39-2.93-4.13-2.93c-3.07,0-4.56,1.11-4.75,3.46H266.7c.19-4.32,3.41-8.11,10.61-8.11,7.39,0,10.37,3.31,10.37,9.07v12.53c0,1.87.28,3,.86,3.41V587h-6.29A6.83,6.83,0,0,1,281.48,584.22Zm0-6v-3.7A18.12,18.12,0,0,1,277,576c-3.41.77-5.09,1.54-5.09,3.84s1.54,3.12,3.84,3.12C279.47,583,281.53,580.67,281.53,578.27Z" fill="#1d1d1b"/><path d="M298.09,566.27h.14c1.49-2.79,3.17-4.23,6-4.23a4.15,4.15,0,0,1,1.54.2V568h-.14c-4.28-.43-7.35,1.82-7.35,7v12H291.8V562.33h6.29Z" fill="#1d1d1b"/><path d="M307.11,579h6.05c.43,2.83,2.45,4.08,5.38,4.08s4.51-1.11,4.51-2.83c0-2.36-3.12-2.6-6.48-3.27-4.42-.86-8.74-2.06-8.74-7.44s4.42-7.87,10-7.87c6.48,0,10.08,3.21,10.56,8.16h-5.91c-.29-2.64-2-3.6-4.75-3.6-2.54,0-4.22,1-4.22,2.73,0,2.12,3.26,2.31,6.76,3,4.13.86,8.69,2,8.69,7.78,0,4.94-4.22,7.92-10.37,7.92C311.48,587.68,307.5,584.22,307.11,579Z" fill="#1d1d1b"/><path d="M331.55,580h7v7h-7Z" fill="#1d1d1b"/><path d="M341.82,563.24a4.7,4.7,0,0,0,3.26-4.37h-3.17v-6.24h6.48v5.67c0,4.37-3.36,6.67-6.57,7.2Zm9.5,0a4.69,4.69,0,0,0,3.27-4.37h-3.17v-6.24h6.48v5.67c0,4.37-3.36,6.67-6.58,7.2Z" fill="#1d1d1b"/><path d="M306.56,652.78c0-3.82,2.38-6.73,6.18-6.73,3.17,0,5,1.89,5.31,4.34h-2.59a2.55,2.55,0,0,0-2.72-2.15c-2.38,0-3.51,2-3.51,4.54s1.37,4.52,3.53,4.52a2.59,2.59,0,0,0,2.77-2.27h2.56a4.56,4.56,0,0,1-1.43,3,5.42,5.42,0,0,1-3.9,1.37C309.14,659.44,306.56,656.65,306.56,652.78Z" fill="#1d1d1b"/><path d="M322,651.14h.06a2.94,2.94,0,0,1,2.68-1.46,3.18,3.18,0,0,1,3.19,3.46v6h-2.45V653.5a1.54,1.54,0,0,0-1.61-1.69,1.92,1.92,0,0,0-1.87,2.12v5.24h-2.45V646.3H322Z" fill="#1d1d1b"/><path d="M332.19,651.41h.06a2.43,2.43,0,0,1,2.27-1.58,1.65,1.65,0,0,1,.57.07V652h0a2.33,2.33,0,0,0-2.76,2.63v4.5h-2.44v-9.23h2.35Z" fill="#1d1d1b"/><path d="M336.49,646.3h2.45v2.2h-2.45Zm0,3.64h2.45v9.23h-2.45Z" fill="#1d1d1b"/><path d="M340.31,656.18h2.27a1.77,1.77,0,0,0,2,1.53c1.08,0,1.69-.41,1.69-1.06,0-.88-1.17-1-2.43-1.22-1.66-.33-3.28-.78-3.28-2.79s1.66-3,3.76-3c2.43,0,3.79,1.21,4,3.06h-2.22c-.11-1-.74-1.35-1.78-1.35s-1.59.36-1.59,1,1.23.87,2.54,1.14c1.55.32,3.26.75,3.26,2.91,0,1.86-1.58,3-3.89,3C342,659.44,340.46,658.15,340.31,656.18Z" fill="#1d1d1b"/><path d="M349.24,649.94h1.28v-2.88h2.39v2.88h1.59v1.62h-1.59v4.89a.81.81,0,0,0,.92.92l.72,0v1.81s-.56,0-1.53,0c-1.19,0-2.5-.47-2.5-2.21v-5.42h-1.28Z" fill="#1d1d1b"/><path d="M356.11,646.3h2.45v2.2h-2.45Zm0,3.64h2.45v9.23h-2.45Z" fill="#1d1d1b"/><path d="M366,658.15h0a2.83,2.83,0,0,1-2.72,1.24c-1.89,0-3.22-1-3.22-2.83,0-2,1.66-2.68,3.71-3,1.53-.22,2.23-.34,2.23-1s-.52-1.1-1.55-1.1-1.71.41-1.78,1.29h-2.18c.07-1.62,1.28-3,4-3s3.89,1.24,3.89,3.41v4.69c0,.71.11,1.12.32,1.28v.09h-2.35A2.34,2.34,0,0,1,366,658.15Zm0-2.24v-1.38a7,7,0,0,1-1.71.54c-1.27.29-1.9.57-1.9,1.44s.57,1.17,1.44,1.17A1.93,1.93,0,0,0,366,655.91Z" fill="#1d1d1b"/><path d="M372.64,651.2h.05a3,3,0,0,1,2.74-1.52,3.18,3.18,0,0,1,3.19,3.46v6h-2.45V653.5a1.54,1.54,0,0,0-1.6-1.69,1.93,1.93,0,0,0-1.88,2.12v5.24h-2.45v-9.23h2.4Z" fill="#1d1d1b"/><path d="M383.46,655.19H386c.18,1.55,1.07,2.16,2.9,2.16,1.33,0,2.5-.46,2.5-1.65s-1.22-1.51-3.18-2c-2.31-.53-4.41-1.14-4.41-3.82s2.07-3.85,4.93-3.85,4.77,1.42,5,4h-2.5a2.22,2.22,0,0,0-2.49-1.94c-1.4,0-2.32.59-2.32,1.51s.9,1.35,2.81,1.76c2.64.58,4.81,1.21,4.81,4,0,2.61-2.11,4.07-5,4.07C385.53,659.46,383.55,657.91,383.46,655.19Z" fill="#1d1d1b"/><path d="M395.3,654.56a4.56,4.56,0,0,1,4.61-4.88,3.92,3.92,0,0,1,4.19,3.39h-2.39a1.69,1.69,0,0,0-1.69-1.42c-1.48,0-2.23,1.13-2.23,2.91s.7,2.92,2.19,2.92a1.73,1.73,0,0,0,1.86-1.57h2.35a3.86,3.86,0,0,1-4.15,3.53A4.59,4.59,0,0,1,395.3,654.56Z" fill="#1d1d1b"/><path d="M408.05,651.14h.05a2.94,2.94,0,0,1,2.68-1.46,3.18,3.18,0,0,1,3.19,3.46v6h-2.45V653.5a1.54,1.54,0,0,0-1.6-1.69,1.92,1.92,0,0,0-1.87,2.12v5.24H405.6V646.3h2.45Z" fill="#1d1d1b"/><path d="M414.94,649.94h2.43l1.11,4.28c.2.76.42,1.73.42,1.73h0s.2-1,.4-1.75l1.15-4.26h2.09l1.21,4.26c.2.78.43,1.75.43,1.75h0s.21-1,.41-1.73l1.17-4.28h2.38l-2.76,9.23h-2.23L422,654.64c-.2-.74-.42-1.61-.42-1.61h0l-.44,1.61-1.26,4.53h-2.21Z" fill="#1d1d1b"/><path d="M434.67,658.15h0a2.83,2.83,0,0,1-2.72,1.24c-1.89,0-3.22-1-3.22-2.83,0-2,1.66-2.68,3.71-3,1.53-.22,2.23-.34,2.23-1s-.52-1.1-1.55-1.1-1.71.41-1.78,1.29h-2.18c.07-1.62,1.28-3,4-3s3.89,1.24,3.89,3.41v4.69c0,.71.11,1.12.32,1.28v.09H435A2.34,2.34,0,0,1,434.67,658.15Zm0-2.24v-1.38a7.26,7.26,0,0,1-1.72.54c-1.27.29-1.9.57-1.9,1.44s.57,1.17,1.44,1.17A1.94,1.94,0,0,0,434.69,655.91Z" fill="#1d1d1b"/><path d="M441.26,651.41h.05a2.43,2.43,0,0,1,2.27-1.58,1.65,1.65,0,0,1,.57.07V652h0c-1.6-.16-2.75.69-2.75,2.63v4.5H438.9v-9.23h2.36Z" fill="#1d1d1b"/><path d="M445.11,649.94h1.27v-2.88h2.4v2.88h1.58v1.62h-1.58v4.89a.81.81,0,0,0,.92.92l.72,0v1.81s-.56,0-1.53,0c-1.19,0-2.51-.47-2.51-2.21v-5.42h-1.27Z" fill="#1d1d1b"/><path d="M451.68,657.3l4.75-5.38v-.06h-4.21v-1.92h7v2l-4.64,5.26v.05h4.88v2h-7.83Z" fill="#1d1d1b"/></g></svg>