<svg id="Layer_1" data-name="Layer 1" xmlns="http://www.w3.org/2000/svg" xmlns:xlink="http://www.w3.org/1999/xlink" viewBox="0 0 510.24 708.66"><defs><clipPath id="clip-path"><rect width="510.24" height="708.66" fill="none"/></clipPath></defs><g clip-path="url(#clip-path)"><rect width="510.24" height="708.66" fill="#010101"/><path d="M51.06,451.74h13l21.13,35.43c2,3.46,4.44,8.88,4.44,8.88h.18s-.36-6.57-.36-11v-33.3h12.7v63.49H89.77L68.1,480.16c-2-3.38-4.52-8.79-4.52-8.79H63.4s.35,6.66.35,11.09v32.77H51.06Z" fill="#fff"/><path d="M108.77,492.41c0-13.5,9.14-24,22.46-24,14.65,0,22.47,11.18,22.47,27.43h-33c.89,7,4.79,11.37,11.63,11.37,4.71,0,7.46-2.13,8.79-5.6H153c-1.69,8.08-8.88,14.92-20.6,14.92C117.29,516.56,108.77,506,108.77,492.41Zm12.08-4.88h20.24c-.36-5.78-4.17-9.77-9.68-9.77C125,477.76,121.91,481.58,120.85,487.53Z" fill="#fff"/><path d="M188.06,515.23V509.9h-.27c-3.1,4.17-6.66,6.57-13,6.57-10.12,0-15.8-6.48-15.8-16.43V469.68h12V498c0,5.33,2.4,8.26,7.55,8.26,5.68,0,9.15-4.26,9.15-10.3V469.68h12.07v45.55Z" fill="#fff"/><path d="M205.28,492.41c0-13.5,9.15-24,22.47-24,14.65,0,22.46,11.18,22.46,27.43h-33c.89,7,4.8,11.37,11.63,11.37,4.71,0,7.46-2.13,8.79-5.6h11.9c-1.69,8.08-8.88,14.92-20.6,14.92C213.81,516.56,205.28,506,205.28,492.41Zm12.08-4.88H237.6c-.35-5.78-4.17-9.77-9.67-9.77C221.53,477.76,218.43,481.58,217.36,487.53Z" fill="#fff"/><path d="M51.06,523.4H63.93v24.86H88.88V523.4h12.88v63.48H88.88v-28H63.93v28H51.06Z" fill="#fff"/><path d="M137.81,581.82h-.18c-2.31,3.46-5.6,6.13-13.41,6.13-9.32,0-15.89-4.89-15.89-13.94,0-10,8.17-13.23,18.29-14.65,7.55-1.07,11-1.69,11-5.15,0-3.29-2.58-5.42-7.64-5.42-5.68,0-8.43,2-8.79,6.39H110.46c.35-8,6.3-15,19.62-15,13.67,0,19.18,6.13,19.18,16.78v23.17c0,3.47.53,5.51,1.6,6.31v.44H139.23C138.52,586,138.07,583.86,137.81,581.82Zm.08-11V564c-2.13,1.25-5.41,2-8.43,2.67-6.31,1.42-9.41,2.84-9.41,7.1s2.84,5.77,7.1,5.77C134.08,579.51,137.89,575.25,137.89,570.81Z" fill="#fff"/><path d="M184.15,581.82H184c-2.31,3.46-5.6,6.13-13.41,6.13-9.32,0-15.89-4.89-15.89-13.94,0-10,8.16-13.23,18.29-14.65,7.54-1.07,11-1.69,11-5.15,0-3.29-2.58-5.42-7.64-5.42-5.68,0-8.44,2-8.79,6.39H156.81c.35-8,6.3-15,19.62-15,13.67,0,19.18,6.13,19.18,16.78v23.17c0,3.47.53,5.51,1.6,6.31v.44H185.57C184.86,586,184.42,583.86,184.15,581.82Zm.09-11V564c-2.13,1.25-5.41,2-8.43,2.67-6.31,1.42-9.41,2.84-9.41,7.1s2.84,5.77,7.1,5.77C180.42,579.51,184.24,575.25,184.24,570.81Z" fill="#fff"/><path d="M200.4,572.14h11.19c.8,5.24,4.53,7.55,9.94,7.55s8.35-2,8.35-5.24c0-4.35-5.77-4.79-12-6-8.17-1.59-16.16-3.81-16.16-13.76s8.17-14.56,18.56-14.56c12,0,18.65,5.95,19.53,15.09H228.9c-.53-4.88-3.64-6.65-8.79-6.65-4.7,0-7.81,1.77-7.81,5.06,0,3.9,6,4.26,12.52,5.59,7.63,1.6,16.07,3.73,16.07,14.38,0,9.15-7.81,14.65-19.18,14.65C208.48,588.21,201.11,581.82,200.4,572.14Z" fill="#fff"/><path d="M97.14,650H97c-4.35,7.28-10.3,9.86-17.85,9.86-9.59,0-17-3.46-22.28-9.24s-8.26-14-8.26-23.61c0-10.57,3.73-19.8,10.39-25.93,5.15-4.71,11.9-7.28,20.42-7.28,16,0,25.13,8.79,27.17,21.22H93.94c-1.42-6.13-6.12-10.57-14.29-10.57-12,0-17.94,9.95-17.94,22.56,0,13,6.84,22.46,17.76,22.46,9.86,0,16.34-7.37,16.34-14.38v-.36H80.54V624.8h26.72v33.74H97.58Z" fill="#fff"/><path d="M126.88,620.27h.27c2.75-5.15,5.86-7.82,11.19-7.82a7.78,7.78,0,0,1,2.84.36v10.57h-.27c-7.9-.8-13.58,3.37-13.58,13v22.2H115.25V613h11.63Z" fill="#fff"/><path d="M143,635.81c0-13.59,9.68-24.07,23.8-24.07s23.8,10.48,23.8,24.07-9.68,24.06-23.8,24.06S143,649.39,143,635.81Zm35.34,0c0-8.88-4.17-14.92-11.54-14.92s-11.54,6-11.54,14.92,4.08,14.82,11.54,14.82S178.29,644.69,178.29,635.81Z" fill="#fff"/><path d="M192.68,613H199V598.78h11.81V613h7.81v8h-7.81v24.15c0,3.37,1.86,4.53,4.53,4.53,1.51,0,3.55-.09,3.55-.09v8.88s-2.75.18-7.55.18c-5.86,0-12.34-2.31-12.34-10.93V621h-6.3Z" fill="#fff"/><path d="M222.24,635.72c0-13.5,9.15-24,22.47-24,14.65,0,22.46,11.19,22.46,27.44h-33c.89,7,4.8,11.37,11.63,11.37,4.71,0,7.46-2.14,8.79-5.6h11.9c-1.69,8.08-8.88,14.92-20.6,14.92C230.77,659.87,222.24,649.3,222.24,635.72Zm12.08-4.89h20.24c-.35-5.77-4.17-9.76-9.68-9.76C238.49,621.07,235.38,624.89,234.32,630.83Z" fill="#fff"/><path d="M269.92,643.8h11.19c.8,5.24,4.53,7.54,9.94,7.54s8.35-2,8.35-5.23c0-4.35-5.77-4.8-12-6-8.16-1.6-16.16-3.82-16.16-13.76s8.17-14.57,18.56-14.57c12,0,18.65,6,19.54,15.1H298.42c-.53-4.89-3.64-6.66-8.79-6.66-4.7,0-7.81,1.77-7.81,5.06,0,3.91,6,4.26,12.52,5.59,7.64,1.6,16.07,3.73,16.07,14.39,0,9.14-7.81,14.65-19.18,14.65C278,659.87,270.63,653.48,269.92,643.8Z" fill="#fff"/><path d="M333.05,637.76l-5.24,5.42v15.36h-12V595.05h12v35.16L344,613h14.48L341.66,630.3l18.83,28.24H345.84Z" fill="#fff"/><line x1="50.17" y1="428.17" x2="472.06" y2="428.17" fill="none" stroke="#fff" stroke-width="2"/></g></svg>