<svg id="Layer_1" data-name="Layer 1" xmlns="http://www.w3.org/2000/svg" xmlns:xlink="http://www.w3.org/1999/xlink" viewBox="0 0 510.24 708.66"><defs><clipPath id="clip-path"><rect width="510.24" height="708.66" fill="none"/></clipPath></defs><g clip-path="url(#clip-path)"><rect width="510.24" height="708.66" fill="#010101"/><path d="M38.38,641.75v-.85h1.56v.74c0,.86.39,1.2,1.1,1.2s1-.42,1-1.18v-6.15h1.74v6.17a2.39,2.39,0,0,1-2.63,2.56C39.41,644.24,38.38,643.43,38.38,641.75Z" fill="#fff"/><path d="M48.57,643.4h0a1.89,1.89,0,0,1-1.81.83c-1.26,0-2.15-.66-2.15-1.88s1.11-1.79,2.47-2c1-.14,1.49-.23,1.49-.7s-.35-.73-1-.73-1.14.28-1.19.87H44.88c0-1.08.85-2,2.65-2s2.59.83,2.59,2.27v3.13c0,.46.07.74.22.85v.06H48.77A1.67,1.67,0,0,1,48.57,643.4Zm0-1.48V641a4.36,4.36,0,0,1-1.14.36c-.85.19-1.27.39-1.27,1s.38.78,1,.78C48.07,643.09,48.59,642.52,48.59,641.92Z" fill="#fff"/><path d="M50.86,641a3,3,0,0,1,3.07-3.25A2.6,2.6,0,0,1,56.72,640H55.13a1.13,1.13,0,0,0-1.13-.95c-1,0-1.49.76-1.49,1.95S53,643,54,643a1.15,1.15,0,0,0,1.24-1h1.57A2.58,2.58,0,0,1,54,644.27,3.06,3.06,0,0,1,50.86,641Z" fill="#fff"/><path d="M57.19,641a3.22,3.22,0,1,1,3.22,3.25A3.13,3.13,0,0,1,57.19,641ZM62,641c0-1.2-.57-2-1.56-2s-1.56.82-1.56,2,.55,2,1.56,2S62,642.22,62,641Z" fill="#fff"/><path d="M64.38,637.94H66v.76h0a2.14,2.14,0,0,1,1.81-.93c1.63,0,2.67,1.33,2.67,3.25s-1.08,3.25-2.66,3.25a2,2,0,0,1-1.77-.88h0v2.71H64.38Zm4.44,3.13c0-1.17-.41-2-1.42-2s-1.42.87-1.42,2,.51,1.84,1.48,1.84S68.82,642.23,68.82,641.07Z" fill="#fff"/><path d="M70.93,641a3.22,3.22,0,1,1,3.22,3.25A3.13,3.13,0,0,1,70.93,641Zm4.78,0c0-1.2-.57-2-1.56-2s-1.56.82-1.56,2,.55,2,1.56,2S75.71,642.22,75.71,641Z" fill="#fff"/><path d="M79.88,641.44h1.71c.12,1,.71,1.44,1.93,1.44.89,0,1.67-.32,1.67-1.11s-.82-1-2.13-1.3c-1.53-.35-2.94-.76-2.94-2.55s1.38-2.56,3.29-2.56,3.18.94,3.31,2.67H85.05a1.47,1.47,0,0,0-1.65-1.29c-.94,0-1.55.39-1.55,1s.6.9,1.87,1.18c1.77.38,3.21.8,3.21,2.65s-1.41,2.71-3.34,2.71C81.26,644.28,79.94,643.25,79.88,641.44Z" fill="#fff"/><path d="M87.84,635.51h1.63V637H87.84Zm0,2.43h1.63v6.15H87.84Z" fill="#fff"/><path d="M92.1,638.92h0a1.61,1.61,0,0,1,1.51-1.06,1,1,0,0,1,.38,0v1.43h0a1.55,1.55,0,0,0-1.83,1.75v3H90.53v-6.15H92.1Z" fill="#fff"/><path d="M94.26,641a3.22,3.22,0,1,1,3.21,3.25A3.13,3.13,0,0,1,94.26,641ZM99,641c0-1.2-.56-2-1.56-2s-1.55.82-1.55,2,.55,2,1.55,2S99,642.22,99,641Z" fill="#fff"/><path d="M103,638.77h0a2,2,0,0,1,1.82-1,2.11,2.11,0,0,1,2.12,2.3v4h-1.63v-3.78a1,1,0,0,0-1.06-1.13,1.29,1.29,0,0,0-1.25,1.42v3.49h-1.63v-6.15H103Z" fill="#fff"/><path d="M108,635.51h1.63V637H108Zm0,2.43h1.63v6.15H108Z" fill="#fff"/><path d="M38.45,656.11A2.27,2.27,0,0,1,40,654v0a1.71,1.71,0,0,1-1.15-1.63c0-1.39,1.21-2.19,3-2.19s2.93.78,2.93,2.16a1.77,1.77,0,0,1-1.14,1.65v0a2.18,2.18,0,0,1,1.49,2.1c0,1.69-1.41,2.63-3.26,2.63S38.45,657.77,38.45,656.11Zm4.93-.06c0-.84-.59-1.39-1.6-1.39s-1.64.55-1.64,1.39.62,1.3,1.62,1.3S43.38,656.83,43.38,656.05Zm-.27-3.63c0-.65-.5-1.08-1.35-1.08s-1.37.43-1.37,1.08.51,1.1,1.37,1.1S43.11,653.07,43.11,652.42Z" fill="#fff"/><path d="M49.53,651.7v0H45.46v-1.41h5.85v1.35a10.42,10.42,0,0,0-3,6.87H46.57A10.76,10.76,0,0,1,49.53,651.7Z" fill="#fff"/><path d="M53.82,655.23c1-.82,2.16-1.4,2.16-2.45a1.12,1.12,0,0,0-1.14-1.28c-.83,0-1.32.6-1.34,1.66H52c0-1.87,1-3.06,2.91-3.06a2.6,2.6,0,0,1,2.8,2.63c0,1.55-1.06,2.28-2.06,2.95A5,5,0,0,0,54,657.15h3.79v1.34h-5.9A4.29,4.29,0,0,1,53.82,655.23Z" fill="#fff"/><path d="M58.27,655.69h1.56c.06,1,.49,1.67,1.62,1.67A1.28,1.28,0,0,0,62.9,656c0-.79-.5-1.27-1.51-1.27h-.5v-1.24h.46c.79,0,1.34-.39,1.34-1.09a1.05,1.05,0,0,0-1.17-1.08,1.35,1.35,0,0,0-1.42,1.47H58.54a2.68,2.68,0,0,1,3-2.72c1.72,0,2.82.86,2.82,2.22a1.77,1.77,0,0,1-1.4,1.73v0a2,2,0,0,1,1.67,2.06c0,1.7-1.41,2.53-3.1,2.53C59.39,658.67,58.3,657.49,58.27,655.69Z" fill="#fff"/><path d="M67.19,655.23c1-.82,2.16-1.4,2.16-2.45a1.12,1.12,0,0,0-1.14-1.28c-.83,0-1.32.6-1.35,1.66H65.33c0-1.87,1-3.06,2.91-3.06a2.6,2.6,0,0,1,2.8,2.63C71,654.28,70,655,69,655.68a5.09,5.09,0,0,0-1.65,1.47h3.79v1.34h-5.9A4.29,4.29,0,0,1,67.19,655.23Z" fill="#fff"/><path d="M71.82,654.39c0-2.63,1.36-4.3,3.44-4.3s3.42,1.66,3.42,4.3-1.29,4.29-3.43,4.29S71.82,657,71.82,654.39Zm5.16,0c0-1.74-.51-2.91-1.72-2.91s-1.74,1.16-1.74,2.91.52,2.9,1.74,2.9S77,656.15,77,654.39Z" fill="#fff"/><line x1="38.17" y1="630.17" x2="134.65" y2="630.17" fill="none" stroke="#fff" stroke-width="2"/></g></svg>